<?xml version="1.0" encoding="UTF-8" standalone="no" ?>
<!DOCTYPE svg PUBLIC "-//W3C//DTD SVG 1.1//EN" "http://www.w3.org/Graphics/SVG/1.1/DTD/svg11.dtd">
<svg xmlns="http://www.w3.org/2000/svg" xmlns:xlink="http://www.w3.org/1999/xlink" version="1.1" width="1024"
  height="1024" viewBox="0 0 1024 1024" xml:space="preserve">
  <defs>
  </defs>
  <g transform="matrix(12.2 0 0 12.2 512 512)">
    <circle
      style="stroke: rgb(0,229,61); stroke-width: 48; stroke-dasharray: none; stroke-linecap: butt; stroke-dashoffset: 0; stroke-linejoin: miter; stroke-miterlimit: 4; fill: none; fill-rule: nonzero; opacity: 1;"
      vector-effect="non-scaling-stroke" cx="0" cy="0" r="40" />
  </g>
  <g transform="matrix(20.07 0 0 20.07 562.45 562.41)">
    <path
      style="stroke: rgb(255,255,255); stroke-opacity: 0; stroke-width: 1; stroke-dasharray: none; stroke-linecap: butt; stroke-dashoffset: 0; stroke-linejoin: miter; stroke-miterlimit: 4; fill: rgb(251,195,8); fill-rule: nonzero; opacity: 1;"
      transform=" translate(-24, -24)"
      d="M 42.82 23.16 l -17.99 -17.99 c -0.73 -0.72 -1.73 -1.17 -2.83 -1.17 h -14 c -2.21 0 -4 1.79 -4 4 v 14 c 0 1.11 0.45 2.11 1.18 2.83 l 18 18 c 0.72 0.72 1.72 1.17 2.82 1.17 c 1.1 0 2.11 -0.45 2.83 -1.17 l 14 -14 c 0.72 -0.73 1.17 -1.73 1.17 -2.83 c 0 -1.11 -0.45 -2.11 -1.18 -2.84 z m -31.82 -9.16 c -1.66 0 -3 -1.34 -3 -3 s 1.34 -3 3 -3 s 3 1.34 3 3 s -1.34 3 -3 3 z"
      stroke-linecap="round" />
  </g>
  <g transform="matrix(0.27 0.27 -0.27 0.27 502.26 502.04)">
    <g style="">
      <g transform="matrix(1 0 0 1 0 0)">
        <circle
          style="stroke: none; stroke-width: 1; stroke-dasharray: none; stroke-linecap: butt; stroke-dashoffset: 0; stroke-linejoin: miter; stroke-miterlimit: 4; fill: rgb(0,0,0); fill-rule: nonzero; opacity: 1;"
          cx="0" cy="0" r="512" />
      </g>
      <g transform="matrix(1 0 0 1 0 0)">
        <radialGradient id="SVGID_893" gradientUnits="userSpaceOnUse" gradientTransform="matrix(1 0 0 1 -512 -1462.6)"
          cx="374.02" cy="1309.089" r="635.35" fx="374.02" fy="1309.089">
          <stop offset="0%" style="stop-color:rgb(254,240,0);stop-opacity: 1" />
          <stop offset="33.2%" style="stop-color:rgb(254,240,0);stop-opacity: 1" />
          <stop offset="45.800000000000004%" style="stop-color:rgb(252,231,1);stop-opacity: 1" />
          <stop offset="66.4%" style="stop-color:rgb(248,207,2);stop-opacity: 1" />
          <stop offset="92.2%" style="stop-color:rgb(240,167,4);stop-opacity: 1" />
          <stop offset="100%" style="stop-color:rgb(238,154,5);stop-opacity: 1" />
        </radialGradient>
        <circle
          style="stroke: none; stroke-width: 1; stroke-dasharray: none; stroke-linecap: butt; stroke-dashoffset: 0; stroke-linejoin: miter; stroke-miterlimit: 4; fill: url(#SVGID_893); fill-rule: nonzero; opacity: 1;"
          cx="0" cy="0" r="430.7" />
      </g>
      <g transform="matrix(1 0 0 1 0 0)">
        <radialGradient id="SVGID_894" gradientUnits="userSpaceOnUse" gradientTransform="matrix(1 0 0 1 -512 -1462.6)"
          cx="512" cy="1462.6" r="430.73" fx="512" fy="1462.6">
          <stop offset="0%" style="stop-color:rgb(254,240,0);stop-opacity: 0" />
          <stop offset="70%" style="stop-color:rgb(254,240,0);stop-opacity: 0" />
          <stop offset="100%" style="stop-color:rgb(204,67,0);stop-opacity: 0.2" />
        </radialGradient>
        <circle
          style="stroke: none; stroke-width: 1; stroke-dasharray: none; stroke-linecap: butt; stroke-dashoffset: 0; stroke-linejoin: miter; stroke-miterlimit: 4; fill: url(#SVGID_894); fill-rule: nonzero; opacity: 1;"
          cx="0" cy="0" r="430.7" />
      </g>
      <g transform="matrix(1 0 0 1 27.3 45.35)">
        <path
          style="stroke: none; stroke-width: 1; stroke-dasharray: none; stroke-linecap: butt; stroke-dashoffset: 0; stroke-linejoin: miter; stroke-miterlimit: 4; fill: rgb(0,0,0); fill-rule: nonzero; opacity: 1;"
          transform=" translate(-539.3, -557.35)"
          d="M 770.4 528.7 c -22.7 0 -41.1 18.4 -41.1 41.1 c 0 94.1 -85.1 170.7 -189.9 170.7 s -189.9 -76.6 -189.9 -170.7 c 0 -22.7 -18.4 -41.1 -41.1 -41.1 s -41.1 18.4 -41.1 41.1 c 0 139.4 121.9 252.8 272 252.8 s 272 -113.4 272 -252.8 c 0.1 -22.7 -18.3 -41.1 -40.9 -41.1 z m -370.9 -92 c 38.1 0 68.9 -32.5 68.9 -72.3 c 0 -40.2 -30.8 -72.3 -68.9 -72.3 s -68.9 32.5 -68.9 72.3 c 0.5 40.2 31.3 72.3 68.9 72.3 z m 278.9 0 c 38.1 0 68.9 -32.5 68.9 -72.3 c 0 -40.2 -30.8 -72.3 -68.9 -72.3 s -68.9 32.5 -68.9 72.3 c 0 40.2 30.8 72.3 68.9 72.3 z"
          stroke-linecap="round" />
      </g>
    </g>
  </g>
  <g transform="matrix(1 0 0 1 404 232)">
    <line
      style="stroke: rgb(0,0,0); stroke-width: 2; stroke-dasharray: none; stroke-linecap: butt; stroke-dashoffset: 0; stroke-linejoin: miter; stroke-miterlimit: 4; fill: rgb(0,0,0); fill-rule: nonzero; opacity: 1;"
      x1="0" y1="0" x2="0" y2="0" />
  </g>
  <g transform="matrix(1.58 -1.58 1.58 1.58 721.25 720.64)" style="">
    <text xml:space="preserve" font-family="'Open Sans', sans-serif" font-size="76" font-style="normal"
      font-weight="normal"
      style="stroke: none; stroke-width: 1; stroke-dasharray: none; stroke-linecap: butt; stroke-dashoffset: 0; stroke-linejoin: miter; stroke-miterlimit: 4; fill: rgb(0,0,0); fill-rule: nonzero; opacity: 1; white-space: pre;">
      <tspan x="-95.8" y="23.87">LIBEL</tspan>
    </text>
  </g>
</svg>
