<?xml version="1.0" encoding="UTF-8"?>
<svg width="250mm" height="166.67mm" version="1.1" viewBox="0 0 250 166.67" xmlns="http://www.w3.org/2000/svg">
  <g transform="translate(276.19 -35.262)">
    <!-- <rect x="-276.19" y="35.262" width="250" height="166.67" style="paint-order:markers fill stroke"/> -->
    <path d="m-155.91 124.03c1.0777-0.1762 1.1577-0.031-0.0421 0.79786-1.1998 0.82884-3.6778 2.3401-7.3143 3.6188-3.6366 1.2787-8.4303 2.324-12.609 1.5444-4.1791-0.77956-7.7428-3.384-10.233-5.5483-2.4902-2.1643-3.9068-3.8884-5.3376-5.7307-1.4308-1.8423-2.8758-3.8029-3.5338-6.9562s-0.52912-7.4992-0.27393-10.094c0.2552-2.5947 0.6366-3.4381 1.0503-3.8436 0.41365-0.40553 0.85957-0.37329 1.6606 0.44621 0.80105 0.8195 1.9576 2.4265 3.9472 3.3708s4.8119 1.2256 6.6997 1.1043c1.8878-0.12128 2.8412-0.64514 3.9641-0.72178 1.1229-0.0766 2.4153 0.29388 3.8384 1.5348s2.9771 3.3522 4.1328 5.8395 1.9131 5.3505 3.3438 7.6089 3.5344 3.9118 5.1921 4.6525 2.8691 0.56893 3.9821 0.51395c1.1129-0.055 2.1268 7e-3 1.0966 0.50461-1.0302 0.49779-4.1037 1.4311-6.8495 1.6128s-5.1626-0.38858-7.2462-1.3513c-2.0836-0.96267-3.8326-2.317-4.8512-3.1419s-1.3051-1.119-1.5248-1.1924c-0.21967-0.0733-0.37233 0.0743-0.37136 0.28769 1e-3 0.21341 0.15572 0.49231 1.3706 1.5786s3.491 2.9808 6.1144 3.9046 5.5946 0.87742 8.1179 0.60537c2.5233-0.27204 4.5988-0.76969 5.6765-0.94589z" fill="#fff" style="paint-order:markers fill stroke"/>
    <path d="m-128.51 164.47c-0.0651 0.91534-0.3725 1.0122-0.72756 0.41667-0.35507-0.59552-0.75721-1.8826-0.98543-2.6785s-0.28247-1.1002-0.44903-1.4256c-0.16656-0.32538-0.44529-0.67163-1.0917-2.0522-0.64637-1.3806-1.6598-3.7944-2.6366-5.5372s-1.9161-2.8132-2.6897-3.2818-1.3809-0.33478-2.1236-0.4195c-0.74265-0.0847-1.6203-0.38794-2.1448-1.0617s-0.69594-1.718-0.74179-2.8918c-0.0458-1.1737 0.0339-2.4768-0.12212-3.0773-0.15598-0.60052-0.54767-0.4984-1.0465-1.7718-0.4988-1.2734-1.1043-3.9214-0.93567-5.6726 0.16862-1.7511 1.1113-2.6049 1.4705-4.0141 0.35918-1.4092 0.13492-3.3738-0.11521-4.6872-0.25013-1.3135-0.52612-1.976-0.81797-2.4512-0.29185-0.47525-0.59949-0.76318-1.2271-0.9678s-1.5747-0.32576-1.9303-0.60936c-0.35555-0.28361-0.11919-0.72946 0.32751-0.80362 0.44669-0.0741 1.1038 0.22329 1.8827 0.60203s1.6797 0.83872 2.5384 1.7671c0.85866 0.92837 1.6752 2.325 2.3843 3.0207 0.70917 0.6957 1.3108 0.69032 1.7701 0.88908 0.45925 0.19876 0.77624 0.6017 1.3295 0.97226 0.5533 0.37056 1.343 0.70883 2.1784 1.2273 0.83543 0.51845 1.7163 1.2168 1.7001 2.3638-0.0161 1.147-0.92928 2.7423-1.3622 4.0112-0.43296 1.2689-0.38553 2.2112-0.15564 2.8023 0.22988 0.59109 0.64222 0.83101 1.1242 1.0291s1.0333 0.35424 1.5164 0.8989c0.48315 0.54467 0.89777 1.4774 1.2922 2.3674s0.76859 1.7368 1.2969 2.8694c0.52834 1.1326 1.2108 2.5509 1.2982 4.4606 0.0873 1.9098-0.42036 4.3099-0.71716 5.6471-0.29679 1.3372-0.38214 1.6088-0.40999 2.0437-0.0279 0.43492 2e-3 1.0332 0.10521 2.1993 0.10338 1.1661 0.28044 2.8997 0.21529 3.815z" fill="#a0a0a0" style="paint-order:markers fill stroke"/>
    <path d="m-146.15 115.05-2.7297 1.0246c-0.52013 0.27482-1.04 0.5495-1.4209 0.56056-0.38096 0.011-0.62232-0.24167-0.37834-1.2829s0.97353-2.8714 1.9152-4.6096c0.94172-1.7383 2.0958-3.3851 2.9675-4.2265 0.87167-0.84141 1.4609-0.87746 2.1465-1.1909 0.68566-0.31342 1.4678-0.90416 2.8249-1.4172 1.357-0.513 3.2888-0.94826 5.4382-0.9656 2.1494-0.0173 4.5162 0.38323 6.1759 0.97747 1.6597 0.59425 2.6122 1.3821 4.4233 1.3435 1.8111-0.0386 4.4802-0.90365 6.396-0.96391 1.9158-0.0603 3.0781 0.68425 4.1748 1.4335 1.0967 0.74922 2.1278 1.5031 2.9084 2.4736s1.3107 2.1576 1.5044 2.7231 0.0509 0.50916-0.0919 0.45289c0.32511 1.439 0.6502 2.8778 1.1205 3.8566 0.47031 0.97879 1.0857 1.4973 1.7012 2.0158 0.088 0.0855 0.17611 0.17103-0.14106 0.15298-0.31717-0.0181-1.0396-0.13967-1.8622-0.49966-0.82264-0.36-1.7449-0.95809-2.5483-1.2886-0.8034-0.3305-1.4877-0.39322-2.0321-0.15685-0.54442 0.23638-0.94858 0.77148-1.1795 1.0525s-0.28763 0.30682-0.40638 0.28216c-0.11876-0.0247-0.29935-0.0999-1.0088 0.0866-0.70941 0.18647-1.9476 0.63467-2.8424 0.31555-0.89472-0.31911-1.4454-1.4054-1.9354-1.8498s-0.91919-0.24691-1.1681-0.28685c-0.24888-0.0399-0.31723-0.31714-0.85266-0.47854s-1.5386-0.207-2.5414-0.25258c-0.46722 0.98762-0.93434 1.975-1.3408 2.4196s-0.75204 0.34581-0.97434-0.0399c-0.2223-0.38568-0.32103-1.0578-0.70638-1.4492-0.38536-0.3914-1.0571-0.50184-1.6614-0.31081s-1.1406 0.68338-1.441 1.185c-0.30038 0.50165-0.36443 1.0122-0.87134 1.1614-0.5069 0.14922-1.4568-0.063-2.3477-0.48089-0.89085-0.41787-1.7224-1.0413-2.575-1.241s-1.7262 0.0244-2.4351-0.12292c-0.70896-0.14735-1.2529-0.6661-1.7969-1.1849l-1.9804-0.80248-2.4273 1.584z" fill="#a0a0a0" style="paint-order:markers fill stroke"/>
    <path d="m-185.33 156c2.22 1.226 4.4401 2.452 7.4985 2.9147s6.9551 0.16219 10.619-0.82092c3.6638-0.98311 7.0942-2.6486 9.1413-3.9475s2.7104-2.2308 3.3739-3.1628c-0.26859-0.0484-0.51498-0.0927-0.76359-0.19884-0.24861-0.10612-0.44172-0.2557-0.5037-0.41132-0.062-0.15562-3e-3 -0.37023 0.0505-0.5663-0.20413 0.41632-0.40817 0.83245-0.53175 1.034-0.12358 0.20155-0.1665 0.18814 0.0634-0.47478 0.22991-0.66292 0.73161-1.9722 1.332-2.6369s1.2987-0.68353 1.8291-0.49283c0.53043 0.19071 0.89305 0.59092 1.2557 0.99114 1.2321-2.5244 2.4642-5.0489 3.0988-7.9036 0.63452-2.8547 0.67151-6.0396 0.7085-9.2247l-11.393 18.421s-18.826 6.336-18.826 6.336l-6.9531 0.14369h-1e-5z" fill="#a0a0a0" style="paint-order:markers fill stroke"/>
    <path d="m-144.75 74.436s-1.7083 3.4488-1.7083 3.4488 1.2248 4.029 1.2248 4.029-0.29009 9.1216-0.29009 9.1216l-11.797 15.213 0.71051 4.9931c0.24126-1.1272 0.48258-2.2546 1.2961-3.5586s2.1994-2.785 3.3262-3.6938c1.1269-0.90873 1.9944-1.245 3.0018-1.8019 1.0074-0.55688 2.1541-1.334 2.6899-2.139 0.53584-0.80502 0.46064-1.6375 0.38543-2.4702 1.0263-1.2334 1.9907-2.3924 2.7013-3.5084 0.71061-1.1159 1.0564-2.0754 1.125-2.8687 0.0685-0.79328-0.0957-1.9049-0.37969-2.6271-0.28403-0.72222-0.63214-1.0231-1.023-1.4401s-0.77952-0.9073-0.95794-1.5585c-0.17841-0.65124-0.1421-1.4354 0.0192-2.202 0.16128-0.7666 0.43583-1.4524 0.46756-2.0215 0.0317-0.56906-0.18443-1.0313-0.32683-1.5877-0.14239-0.55644-0.21362-1.213-0.21503-1.7406-1e-3 -0.52757 0.0669-0.92697 0.28912-1.4292 0.22221-0.50219 0.59789-1.1065 0.74991-1.5457 0.15203-0.43926 0.0803-0.7131 9e-3 -0.98702l-1.2977 0.3741z" fill="#a0a0a0" style="paint-order:markers fill stroke"/>
    <path d="m-144.79 71.933c-1.1435-0.0018-2.7583 0.12429-4.6381 0.77364-2.5064 0.8658-5.4834 2.6617-8.1309 4.8715-2.6474 2.2098-4.9646 4.8327-6.6113 7.5344-1.6467 2.7017-2.6229 5.4822-3.1982 8.2363-0.57526 2.7541-0.74947 5.4815-0.14965 8.527 0.59981 3.0454 1.9737 6.4096 3.9494 9.3306 1.9758 2.9209 4.5521 5.3977 5.9697 6.6028 1.4175 1.2051 1.6734 1.1363 1.6347 0.80167-0.0387-0.33465-0.37207-0.93516-1.0816-1.9494-0.70952-1.0142-1.7952-2.4421-2.4764-4.1088-0.68122-1.6667-0.95796-3.572-1.0766-5.1581s-0.0794-2.8528 0.0936-4.3395c0.17299-1.4867 0.4795-3.1926 0.86195-4.3469 0.38245-1.1544 0.84025-1.7555 1.1258-2.0206s0.39853-0.19374 0.27568 0.3446c-0.12284 0.53834-0.48164 1.5437-0.74808 2.5183-0.26643 0.9746-0.44045 1.9184-0.44084 3.8957 0 1.9773 0.17281 4.9882 0.96295 7.7664 0.79014 2.7782 2.1967 5.3228 2.955 6.4105s0.86703 0.71696 0.84185 0.22897c-0.0252-0.48798-0.18442-1.0932-0.40947-1.658-0.22503-0.56482-0.51578-1.0893-0.87252-2.0311-0.35675-0.94187-0.77929-2.3008-0.63597-4.0924 0.14331-1.7917 0.85233-4.0155 2.319-6.4814 1.4666-2.4658 3.6904-5.173 5.3074-6.5644 1.6171-1.3914 2.627-1.4666 3.1642-2.7237 0.53716-1.2571 0.60153-3.6958 0.69661-5.8681 0.0951-2.1723 0.22074-4.0777 0.18332-5.5686-0.0374-1.491-0.23795-2.5676-0.42604-3.2922-0.18809-0.72457-0.36372-1.097-0.46605-1.3527-0.10234-0.2557-0.13129-0.39449 0.24801-1.058 0.37929-0.66348 1.1664-1.8506 1.8186-2.7165 0.65217-0.86581 1.1692-1.41 1.478-1.7592 0.30882-0.34914 0.40869-0.50234 0.33368-0.5637-0.075-0.06136-0.32495-0.03082-0.5073-0.04089-0.18235-0.01006-0.29658-0.06086-1.3715-0.11845-0.26874-0.01439-0.59765-0.02918-0.97882-0.02979zm-2.656 6.3596c0.14164 0.0076 0.28265 0.03958 0.41511 0.10012 0.35321 0.16144 0.64554 0.52613 0.76712 0.87746 0.12156 0.35132 0.0723 0.68887 0.0411 0.95484-0.0313 0.26596-0.0443 0.45888-0.11087 0.63228-0.0666 0.1734-0.18681 0.32674-0.43662 0.54731-0.2498 0.22057-0.62939 0.5085-1.0186 0.46817-0.38926-0.04032-0.78814-0.40875-0.97811-0.91218-0.18996-0.50344-0.171-1.1414-0.0437-1.6049 0.12729-0.46353 0.36284-0.75228 0.68762-0.91747 0.20299-0.10324 0.44097-0.15825 0.67705-0.1456zm0.74596 4.7945c0.32943 0.0075 0.69879 0.1759 0.89861 0.44508 0.24593 0.3313 0.23503 0.81514 0.13591 1.0865-0.0991 0.27137-0.28664 0.33014-0.52546 0.29172-0.23882-0.03842-0.52896-0.174-0.67404-0.24184-0.14509-0.06784-0.14503-0.06786-0.26988-0.18508-0.12483-0.11722-0.3743-0.35146-0.38143-0.64444-7e-3 -0.29297 0.22814-0.64454 0.59718-0.73081 0.0692-0.01617 0.14309-0.02287 0.21911-0.02115zm-2.6708 0.44843c0.13487-9.02e-4 0.29912 0.02362 0.45653 0.06521 0.25187 0.06656 0.48607 0.17692 0.64814 0.30918 0.16206 0.13225 0.25199 0.28637 0.30212 0.46094 0.0501 0.17457 0.0605 0.36983 0.0169 0.58856-0.0435 0.21873-0.141 0.46122-0.26387 0.6321-0.12286 0.17088-0.27126 0.27014-0.41405 0.27322-0.14279 0.0031-0.27984-0.09024-0.42445-0.24202-0.14462-0.15177-0.29658-0.36181-0.42498-0.58732-0.1284-0.22552-0.23313-0.4662-0.27128-0.66065-0.0382-0.19445-0.01-0.34261 8e-3 -0.48262 0.0178-0.14001 0.025-0.27156 0.16357-0.32609 0.052-0.02045 0.12232-0.02999 0.20324-0.0305z" fill="#fff" style="paint-order:markers fill stroke"/>
    <path d="m-188.26 153.74c0.11019-0.10639 0.33052-0.31912 0.72556-0.35135 0.39505-0.0322 0.9608 0.11485 1.6169 0.12631 0.65607 0.0115 1.384-0.113 2.4638-0.92899 1.0798-0.81599 2.5062-2.3224 3.2924-3.5531 0.78626-1.2307 0.93244-2.1857 1.0853-3.4002 0.15287-1.2145 0.3124-2.6882 1.7749-4.8914 1.4625-2.2032 4.2278-5.1356 6.8416-6.4149s5.0762-0.90552 7.4861-0.94747c2.4099-0.0419 4.7669-0.49953 6.6736-1.4483 1.9067-0.94879 3.3624-2.3884 4.0685-3.5787 0.70612-1.1904 0.66267-2.1314 0.64078-2.8864-0.0219-0.75499-0.0222-1.3238-0.0176-1.7356 5e-3 -0.41186 0.0143-0.66658 0.0765-0.7993s0.17693-0.14346 0.28129-0.063c0.10437 0.0805 0.19849 0.25222 0.32445 0.61725 0.12595 0.36503 0.2836 0.92295 0.40538 2.0302 0.12177 1.1073 0.20759 2.7636-0.0907 4.4835-0.2983 1.7199-0.98077 3.5034-2.3926 5.4393-1.4118 1.9358-3.5528 4.0236-5.0506 5.4571-1.4978 1.4336-2.3522 2.2127-2.7701 2.6259-0.41785 0.41328-0.399 0.46068-0.27378 0.49448s0.40287 0.058 1.1133-0.0912c0.7104-0.14916 2.5615-0.62022 4.0689-1.9847 1.5074-1.3645 2.9789-3.7006 3.9887-5.6745 1.0097-1.9739 1.5577-3.5856 1.7994-4.8629 0.24172-1.2773 0.17729-2.2204 0.15567-3.1888-0.0216-0.9684-3.4e-4 -1.9617 0.0614-2.4839 0.0618-0.52224 0.16415-0.57324 0.27432-0.45644s0.22837 0.40155 0.36628 0.82742 0.29542 0.9925 0.4981 1.6426c0.20268 0.65004 0.4505 1.3834 0.56327 2.4478 0.11277 1.0644 0.0904 2.4592-0.52056 4.3582-0.61096 1.899-1.8105 4.3016-3.259 6.4538s-3.1462 4.054-4.8437 5.9557c-0.63862 1.5772-1.2382 3.0579-2.7216 4.8125-1.4833 1.7546-3.2885 3.2023-6.6091 4.4425-3.3206 1.2402-6.9728 1.7313-9.7737 1.8321-2.8009 0.10078-4.8954-0.22159-6.4913-0.72833-1.5959-0.50675-2.7705-1.2072-3.5742-1.7554-0.80371-0.54826-1.2334-0.94254-1.5658-1.2028-0.33238-0.2602-0.56736-0.3863-0.68486-0.44935-0.1175-0.0631-0.11742-0.0631-7e-3 -0.16946z" fill="#fff" style="paint-order:markers fill stroke"/>
    <path d="m-148.88 116.08c0.50346-0.11502 1.007-0.23006 2.7283-2.0782 1.7213-1.8482 4.6605-5.4296 7.3986-7.0289 2.7381-1.5994 5.2751-1.2169 7.1867-0.7436 1.9116 0.47331 3.1978 1.0374 4.437 1.7006 1.2393 0.66313 2.4316 1.4252 4.0092 1.4848 1.5776 0.0596 3.5404-0.5833 5.0574-0.9233s2.8021-0.38455 3.7013-0.12023c0.89922 0.26433 2.4224 1.1675 3.1156 1.6788 0.69314 0.51126 1.0513 0.94783 1.2876 1.256 0.23637 0.30823 0.31143 0.43316 0.47983 0.97381s0.41093 1.4459 0.65809 2.3684c0.69716 0.87617 1.3943 1.7523 1.7114 2.2092 0.31708 0.45685 0.25403 0.49442-0.29976 0.30479-0.55378-0.18964-1.5959-0.60574-2.5985-1.3376-1.0026-0.7319-1.9643-1.7789-3.0194-2.1281-1.0551-0.3492-2.2031-3.4e-4 -2.9299 0.24531-0.72683 0.24575-1.0317 0.38827-1.6078 0.55415-0.57612 0.16589-1.4232 0.35503-2.2747 0.26367-0.85153-0.0914-1.7078-0.46331-2.2217-0.92194-0.51397-0.45863-0.68565-1.0038-1.9115-1.1602-1.2259-0.15639-3.5059 0.076-4.8652 0.40335-1.3592 0.32733-1.7975 0.74955-2.4061 1.0493s-1.3869 0.4768-2.1942 0.58445c-0.80728 0.10765-1.6431 0.14584-2.1766-8e-3 -0.53357-0.15406-0.76484-0.50037-2.043-0.60965s-3.6032 0.0185-5.483 0.41538c-1.8798 0.39692-3.3139 1.063-4.1964 1.3692-0.88243 0.30626-1.2128 0.25253-1.5432 0.19881z" fill="#505050" style="paint-order:markers fill stroke"/>
    <path d="m-131.09 159.07c-0.0754 0.22959-0.11148 0.22485-0.17968-0.53657s-0.16816-2.2757-0.6681-4.0598c-0.49995-1.7841-1.3997-3.8361-2.5623-5.1326-1.1626-1.2965-2.5879-1.8373-3.6946-2.3396-1.1067-0.5023-1.8945-0.96602-2.1111-1.5793-0.21663-0.61331 0.13793-1.3762 0.073-2.1859-0.0649-0.80974-0.54929-1.6665-0.87829-3.052s-0.50271-3.2996-0.44985-5.0674c0.0529-1.7678 0.33224-3.3887 0.11867-5.1082-0.21357-1.7196-0.92002-3.5374-1.6265-5.3554 1.2033 0.88638 2.4066 1.7727 2.999 2.7908 0.5925 1.0181 0.57408 2.1678 0.64494 3.2926 0.0709 1.1249 0.23102 2.2249 0.70967 3.8416 0.47865 1.6167 1.2757 3.7499 2.607 6.1732 1.3312 2.4233 3.1965 5.1366 4.1728 8.0452 0.97623 2.9086 1.0634 6.0123 1.0495 7.7961-0.0138 1.7838-0.12865 2.2476-0.20408 2.4772z" fill="#505050" style="paint-order:markers fill stroke"/>
  </g>
</svg>
